<svg width="22" height="26" viewBox="0 0 22 26" fill="none" xmlns="http://www.w3.org/2000/svg">
<path fill-rule="evenodd" clip-rule="evenodd" d="M11.0007 8.66667C9.71399 8.66667 8.66733 9.71334 8.66733 11.0013C8.66733 12.288 9.71399 13.3333 11.0007 13.3333C12.2873 13.3333 13.334 12.288 13.334 11.0013C13.334 9.71334 12.2873 8.66667 11.0007 8.66667ZM11.0007 15.3333C8.61133 15.3333 6.66733 13.3907 6.66733 11.0013C6.66733 8.61067 8.61133 6.66667 11.0007 6.66667C13.39 6.66667 15.334 8.61067 15.334 11.0013C15.334 13.3907 13.39 15.3333 11.0007 15.3333Z" fill="#8456EC"/>
<mask id="mask0_0_18" style="mask-type:alpha" maskUnits="userSpaceOnUse" x="0" y="0" width="22" height="26">
<path fill-rule="evenodd" clip-rule="evenodd" d="M0 0H21.9993V26H0V0Z" fill="white"/>
</mask>
<g mask="url(#mask0_0_18)">
<path fill-rule="evenodd" clip-rule="evenodd" d="M10.9993 2C6.03666 2 1.99933 6.076 1.99933 11.084C1.99933 17.456 9.498 23.664 10.9993 23.9947C12.5007 23.6627 19.9993 17.4547 19.9993 11.084C19.9993 6.076 15.962 2 10.9993 2ZM10.9993 26C8.60733 26 -0.000671387 18.5973 -0.000671387 11.084C-0.000671387 4.972 4.934 0 10.9993 0C17.0647 0 21.9993 4.972 21.9993 11.084C21.9993 18.5973 13.3913 26 10.9993 26Z" fill="#8456EC"/>
</g>
</svg>
