<svg width="26" height="29" viewBox="0 0 26 29" fill="none" xmlns="http://www.w3.org/2000/svg">
<path fill-rule="evenodd" clip-rule="evenodd" d="M24.8887 11.8724H1.12332C0.571321 11.8724 0.123322 11.4244 0.123322 10.8724C0.123322 10.3204 0.571321 9.87241 1.12332 9.87241H24.8887C25.4407 9.87241 25.8887 10.3204 25.8887 10.8724C25.8887 11.4244 25.4407 11.8724 24.8887 11.8724Z" fill="#8456EC"/>
<path fill-rule="evenodd" clip-rule="evenodd" d="M18.9349 17.0795C18.3829 17.0795 17.9296 16.6315 17.9296 16.0795C17.9296 15.5275 18.3709 15.0795 18.9229 15.0795H18.9349C19.4869 15.0795 19.9349 15.5275 19.9349 16.0795C19.9349 16.6315 19.4869 17.0795 18.9349 17.0795Z" fill="#8456EC"/>
<path fill-rule="evenodd" clip-rule="evenodd" d="M13.0183 17.0795C12.4663 17.0795 12.0129 16.6315 12.0129 16.0795C12.0129 15.5275 12.4543 15.0795 13.0063 15.0795H13.0183C13.5703 15.0795 14.0183 15.5275 14.0183 16.0795C14.0183 16.6315 13.5703 17.0795 13.0183 17.0795Z" fill="#8456EC"/>
<path fill-rule="evenodd" clip-rule="evenodd" d="M7.08919 17.0795C6.53719 17.0795 6.08252 16.6315 6.08252 16.0795C6.08252 15.5275 6.52519 15.0795 7.07719 15.0795H7.08919C7.64119 15.0795 8.08919 15.5275 8.08919 16.0795C8.08919 16.6315 7.64119 17.0795 7.08919 17.0795Z" fill="#8456EC"/>
<path fill-rule="evenodd" clip-rule="evenodd" d="M18.9349 22.2617C18.3829 22.2617 17.9296 21.8137 17.9296 21.2617C17.9296 20.7097 18.3709 20.2617 18.9229 20.2617H18.9349C19.4869 20.2617 19.9349 20.7097 19.9349 21.2617C19.9349 21.8137 19.4869 22.2617 18.9349 22.2617Z" fill="#8456EC"/>
<path fill-rule="evenodd" clip-rule="evenodd" d="M13.0183 22.2617C12.4663 22.2617 12.0129 21.8137 12.0129 21.2617C12.0129 20.7097 12.4543 20.2617 13.0063 20.2617H13.0183C13.5703 20.2617 14.0183 20.7097 14.0183 21.2617C14.0183 21.8137 13.5703 22.2617 13.0183 22.2617Z" fill="#8456EC"/>
<path fill-rule="evenodd" clip-rule="evenodd" d="M7.08919 22.2617C6.53719 22.2617 6.08252 21.8137 6.08252 21.2617C6.08252 20.7097 6.52519 20.2617 7.07719 20.2617H7.08919C7.64119 20.2617 8.08919 20.7097 8.08919 21.2617C8.08919 21.8137 7.64119 22.2617 7.08919 22.2617Z" fill="#8456EC"/>
<path fill-rule="evenodd" clip-rule="evenodd" d="M18.3913 6.388C17.8393 6.388 17.3913 5.94 17.3913 5.388V1C17.3913 0.448 17.8393 0 18.3913 0C18.9433 0 19.3913 0.448 19.3913 1V5.388C19.3913 5.94 18.9433 6.388 18.3913 6.388Z" fill="#8456EC"/>
<path fill-rule="evenodd" clip-rule="evenodd" d="M7.62039 6.388C7.06839 6.388 6.62039 5.94 6.62039 5.388V1C6.62039 0.448 7.06839 0 7.62039 0C8.17239 0 8.62039 0.448 8.62039 1V5.388C8.62039 5.94 8.17239 6.388 7.62039 6.388Z" fill="#8456EC"/>
<mask id="mask0_0_3" style="mask-type:alpha" maskUnits="userSpaceOnUse" x="0" y="2" width="26" height="27">
<path fill-rule="evenodd" clip-rule="evenodd" d="M0 2.10547H26V28.6667H0V2.10547Z" fill="white"/>
</mask>
<g mask="url(#mask0_0_3)">
<path fill-rule="evenodd" clip-rule="evenodd" d="M7.36133 4.10547C3.904 4.10547 2 5.94947 2 9.29747V21.3628C2 24.7841 3.904 26.6668 7.36133 26.6668H18.6387C22.096 26.6668 24 24.8188 24 21.4641V9.29747C24.0053 7.6508 23.5627 6.3708 22.684 5.4908C21.78 4.58414 20.3867 4.10547 18.6507 4.10547H7.36133ZM18.6387 28.6668H7.36133C2.82133 28.6668 0 25.8681 0 21.3628V9.29747C0 4.86014 2.82133 2.10547 7.36133 2.10547H18.6507C20.9293 2.10547 22.8133 2.78814 24.1 4.07747C25.3493 5.33214 26.0067 7.13614 26 9.30014V21.4641C26 25.9068 23.1787 28.6668 18.6387 28.6668Z" fill="#8456EC"/>
</g>
</svg>
